{
    "asset" : {
        "generator" : "Khronos glTF Blender I/O v3.4.50",
        "version" : "2.0"
    },
    "extensionsUsed" : [
        "KHR_materials_specular",
        "KHR_materials_ior"
    ],
    "scene" : 0,
    "scenes" : [
        {
            "name" : "Scene",
            "nodes" : [
                0,
                1,
                2,
                3
            ]
        }
    ],
    "nodes" : [
        {
            "mesh" : 0,
            "name" : "Apple",
            "scale" : [
                1.1803791522979736,
                1.1735796928405762,
                1.2569581270217896
            ],
            "translation" : [
                -0.14187246561050415,
                -0.047438714653253555,
                0.0637451633810997
            ]
        },
        {
            "mesh" : 1,
            "name" : "Trunc",
            "rotation" : [
                0.11879823356866837,
                -0.08161484450101852,
                0.09207452833652496,
                0.9852656722068787
            ],
            "scale" : [
                0.04669205844402313,
                0.240972638130188,
                0.05507254600524902
            ],
            "translation" : [
                -0.20014658570289612,
                1.2096244096755981,
                0.1293538510799408
            ]
        },
        {
            "mesh" : 2,
            "name" : "Leaf",
            "rotation" : [
                -0.8932140469551086,
                -0.4006367027759552,
                -0.14027921855449677,
                0.14825871586799622
            ],
            "scale" : [
                -0.42063650488853455,
                -0.01204422116279602,
                -0.9609358310699463
            ],
            "translation" : [
                -0.2646228075027466,
                1.920693039894104,
                -0.6010266542434692
            ]
        },
        {
            "mesh" : 3,
            "name" : "Connect",
            "rotation" : [
                -0.5664442777633667,
                0.1523318886756897,
                0.24533934891223907,
                0.7718448638916016
            ],
            "scale" : [
                0.008280377835035324,
                0.08549806475639343,
                0.004937767516821623
            ],
            "translation" : [
                -0.28518494963645935,
                1.5328339338302612,
                0.1418549120426178
            ]
        }
    ],
    "materials" : [
        {
            "doubleSided" : true,
            "extensions" : {
                "KHR_materials_specular" : {
                    "specularColorFactor" : [
                        1.4097439867819561,
                        1.4097439867819561,
                        1.4097439867819561
                    ]
                },
                "KHR_materials_ior" : {
                    "ior" : 1.4500000476837158
                }
            },
            "name" : "Apple",
            "pbrMetallicRoughness" : {
                "baseColorFactor" : [
                    0.8000000715255737,
                    0.000935325981117785,
                    0.000935325981117785,
                    1
                ],
                "metallicFactor" : 0,
                "roughnessFactor" : 0.3110235929489136
            }
        },
        {
            "doubleSided" : true,
            "extensions" : {
                "KHR_materials_specular" : {
                    "specularColorFactor" : [
                        0.4014502900604961,
                        0.4014502900604961,
                        0.4014502900604961
                    ]
                },
                "KHR_materials_ior" : {
                    "ior" : 1.4500000476837158
                }
            },
            "name" : "Trunc",
            "pbrMetallicRoughness" : {
                "baseColorFactor" : [
                    0.094624362885952,
                    0.01369189377874136,
                    0.0019051753915846348,
                    1
                ],
                "metallicFactor" : 0,
                "roughnessFactor" : 0.4921259880065918
            }
        },
        {
            "doubleSided" : true,
            "extensions" : {
                "KHR_materials_specular" : {
                    "specularColorFactor" : [
                        0.1867210713076695,
                        0.1867210713076695,
                        0.1867210713076695
                    ]
                },
                "KHR_materials_ior" : {
                    "ior" : 1.4500000476837158
                }
            },
            "name" : "Leaf",
            "pbrMetallicRoughness" : {
                "baseColorFactor" : [
                    0.0009470266522839665,
                    0.027209827676415443,
                    0,
                    1
                ],
                "metallicFactor" : 0.16535434126853943,
                "roughnessFactor" : 0.6102362275123596
            }
        }
    ],
    "meshes" : [
        {
            "name" : "Sphere.001",
            "primitives" : [
                {
                    "attributes" : {
                        "POSITION" : 0,
                        "TEXCOORD_0" : 1,
                        "NORMAL" : 2
                    },
                    "indices" : 3,
                    "material" : 0
                }
            ]
        },
        {
            "name" : "Cube.001",
            "primitives" : [
                {
                    "attributes" : {
                        "POSITION" : 4,
                        "TEXCOORD_0" : 5,
                        "NORMAL" : 6
                    },
                    "indices" : 7,
                    "material" : 1
                }
            ]
        },
        {
            "name" : "Cube.002",
            "primitives" : [
                {
                    "attributes" : {
                        "POSITION" : 8,
                        "TEXCOORD_0" : 9,
                        "NORMAL" : 10
                    },
                    "indices" : 11,
                    "material" : 2
                }
            ]
        },
        {
            "name" : "Cylinder",
            "primitives" : [
                {
                    "attributes" : {
                        "POSITION" : 12,
                        "TEXCOORD_0" : 13,
                        "NORMAL" : 14
                    },
                    "indices" : 15,
                    "material" : 1
                }
            ]
        }
    ],
    "accessors" : [
        {
            "bufferView" : 0,
            "componentType" : 5126,
            "count" : 594,
            "max" : [
                1.0043832063674927,
                1.0937761068344116,
                1.0208200216293335
            ],
            "min" : [
                -1.0270452499389648,
                -1.027722716331482,
                -1.0236324071884155
            ],
            "type" : "VEC3"
        },
        {
            "bufferView" : 1,
            "componentType" : 5126,
            "count" : 594,
            "type" : "VEC2"
        },
        {
            "bufferView" : 2,
            "componentType" : 5126,
            "count" : 594,
            "type" : "VEC3"
        },
        {
            "bufferView" : 3,
            "componentType" : 5123,
            "count" : 606,
            "type" : "SCALAR"
        },
        {
            "bufferView" : 4,
            "componentType" : 5126,
            "count" : 80,
            "max" : [
                1.1965945959091187,
                1.8001526594161987,
                0.9727993607521057
            ],
            "min" : [
                -1.5530285835266113,
                -1.2739646434783936,
                -1.436975359916687
            ],
            "type" : "VEC3"
        },
        {
            "bufferView" : 5,
            "componentType" : 5126,
            "count" : 80,
            "type" : "VEC2"
        },
        {
            "bufferView" : 6,
            "componentType" : 5126,
            "count" : 80,
            "type" : "VEC3"
        },
        {
            "bufferView" : 7,
            "componentType" : 5123,
            "count" : 84,
            "type" : "SCALAR"
        },
        {
            "bufferView" : 8,
            "componentType" : 5126,
            "count" : 102,
            "max" : [
                0.6231149435043335,
                17.467714309692383,
                0.8987667560577393
            ],
            "min" : [
                -0.8955913782119751,
                -17.76620101928711,
                -0.867026150226593
            ],
            "type" : "VEC3"
        },
        {
            "bufferView" : 9,
            "componentType" : 5126,
            "count" : 102,
            "type" : "VEC2"
        },
        {
            "bufferView" : 10,
            "componentType" : 5126,
            "count" : 102,
            "type" : "VEC3"
        },
        {
            "bufferView" : 11,
            "componentType" : 5123,
            "count" : 102,
            "type" : "SCALAR"
        },
        {
            "bufferView" : 12,
            "componentType" : 5126,
            "count" : 46,
            "max" : [
                0.6994708776473999,
                1,
                1.2167952060699463
            ],
            "min" : [
                -1.1081453561782837,
                -1.017616868019104,
                -1.6460630893707275
            ],
            "type" : "VEC3"
        },
        {
            "bufferView" : 13,
            "componentType" : 5126,
            "count" : 46,
            "type" : "VEC2"
        },
        {
            "bufferView" : 14,
            "componentType" : 5126,
            "count" : 46,
            "type" : "VEC3"
        },
        {
            "bufferView" : 15,
            "componentType" : 5123,
            "count" : 78,
            "type" : "SCALAR"
        }
    ],
    "bufferViews" : [
        {
            "buffer" : 0,
            "byteLength" : 7128,
            "byteOffset" : 0,
            "target" : 34962
        },
        {
            "buffer" : 0,
            "byteLength" : 4752,
            "byteOffset" : 7128,
            "target" : 34962
        },
        {
            "buffer" : 0,
            "byteLength" : 7128,
            "byteOffset" : 11880,
            "target" : 34962
        },
        {
            "buffer" : 0,
            "byteLength" : 1212,
            "byteOffset" : 19008,
            "target" : 34963
        },
        {
            "buffer" : 0,
            "byteLength" : 960,
            "byteOffset" : 20220,
            "target" : 34962
        },
        {
            "buffer" : 0,
            "byteLength" : 640,
            "byteOffset" : 21180,
            "target" : 34962
        },
        {
            "buffer" : 0,
            "byteLength" : 960,
            "byteOffset" : 21820,
            "target" : 34962
        },
        {
            "buffer" : 0,
            "byteLength" : 168,
            "byteOffset" : 22780,
            "target" : 34963
        },
        {
            "buffer" : 0,
            "byteLength" : 1224,
            "byteOffset" : 22948,
            "target" : 34962
        },
        {
            "buffer" : 0,
            "byteLength" : 816,
            "byteOffset" : 24172,
            "target" : 34962
        },
        {
            "buffer" : 0,
            "byteLength" : 1224,
            "byteOffset" : 24988,
            "target" : 34962
        },
        {
            "buffer" : 0,
            "byteLength" : 204,
            "byteOffset" : 26212,
            "target" : 34963
        },
        {
            "buffer" : 0,
            "byteLength" : 552,
            "byteOffset" : 26416,
            "target" : 34962
        },
        {
            "buffer" : 0,
            "byteLength" : 368,
            "byteOffset" : 26968,
            "target" : 34962
        },
        {
            "buffer" : 0,
            "byteLength" : 552,
            "byteOffset" : 27336,
            "target" : 34962
        },
        {
            "buffer" : 0,
            "byteLength" : 156,
            "byteOffset" : 27888,
            "target" : 34963
        }
    ],
    "buffers" : [
        {
            "byteLength" : 28044,
            "uri" : "data:application/octet-stream;base64,"
        }
    ]
}
