<?xml version="1.0" encoding="UTF-8" standalone="no"?>
<!-- Created with Inkscape (http://www.inkscape.org/) -->

<svg
   width="75.313789mm"
   height="73.021828mm"
   viewBox="0 0 75.313789 73.021828"
   version="1.1"
   id="svg1"
   xml:space="preserve"
   inkscape:version="1.4.2 (ebf0e940d0, 2025-05-08)"
   sodipodi:docname="icon_3d.svg"
   xmlns:inkscape="http://www.inkscape.org/namespaces/inkscape"
   xmlns:sodipodi="http://sodipodi.sourceforge.net/DTD/sodipodi-0.dtd"
   xmlns="http://www.w3.org/2000/svg"
   xmlns:svg="http://www.w3.org/2000/svg"><sodipodi:namedview
     id="namedview1"
     pagecolor="#505050"
     bordercolor="#eeeeee"
     borderopacity="1"
     inkscape:showpageshadow="0"
     inkscape:pageopacity="0"
     inkscape:pagecheckerboard="0"
     inkscape:deskcolor="#505050"
     inkscape:document-units="mm"
     showguides="true"
     inkscape:zoom="1.0607991"
     inkscape:cx="-194.66458"
     inkscape:cy="151.77238"
     inkscape:window-width="1920"
     inkscape:window-height="1044"
     inkscape:window-x="0"
     inkscape:window-y="0"
     inkscape:window-maximized="1"
     inkscape:current-layer="layer1" /><defs
     id="defs1"><marker
       style="overflow:visible"
       id="RoundedArrow"
       refX="0"
       refY="0"
       orient="auto-start-reverse"
       inkscape:stockid="Rounded arrow"
       markerWidth="0.5"
       markerHeight="0.5"
       viewBox="0 0 1 1"
       inkscape:isstock="true"
       inkscape:collect="always"
       preserveAspectRatio="xMidYMid"><path
         transform="scale(0.7)"
         d="m -0.21114562,-4.1055728 6.42229122,3.21114561 a 1,1 90 0 1 0,1.78885438 L -0.21114562,4.1055728 A 1.236068,1.236068 31.717474 0 1 -2,3 v -6 a 1.236068,1.236068 148.28253 0 1 1.78885438,-1.1055728 z"
         style="fill:context-stroke;fill-rule:evenodd;stroke:none"
         id="path8" /></marker><inkscape:path-effect
       effect="fillet_chamfer"
       id="path-effect3"
       is_visible="true"
       lpeversion="1"
       nodesatellites_param="F,0,0,1,0,0,0,1 @ F,0,0,1,0,0,0,1 @ F,0,0,1,0,0,0,1 @ F,0,0,1,0,0,0,1 | F,0,0,1,0,0,0,1 @ F,0,0,1,0,0,0,1 @ F,0,0,1,0,0,0,1 @ F,0,0,1,0,0,0,1 | F,0,0,1,0,0,0,1 @ F,0,0,1,0,0,0,1 @ F,0,0,1,0,0,0,1 @ F,0,0,1,0,0,0,1"
       radius="0"
       unit="px"
       method="auto"
       mode="F"
       chamfer_steps="1"
       flexible="false"
       use_knot_distance="true"
       apply_no_radius="true"
       apply_with_radius="true"
       only_selected="false"
       hide_knots="false" /><marker
       style="overflow:visible"
       id="RoundedArrow-8"
       refX="0"
       refY="0"
       orient="auto-start-reverse"
       inkscape:stockid="Rounded arrow"
       markerWidth="0.5"
       markerHeight="0.5"
       viewBox="0 0 1 1"
       inkscape:isstock="true"
       inkscape:collect="always"
       preserveAspectRatio="xMidYMid"><path
         transform="scale(0.7)"
         d="m -0.21114562,-4.1055728 6.42229122,3.21114561 a 1,1 90 0 1 0,1.78885438 L -0.21114562,4.1055728 A 1.236068,1.236068 31.717474 0 1 -2,3 v -6 a 1.236068,1.236068 148.28253 0 1 1.78885438,-1.1055728 z"
         style="fill:context-stroke;fill-rule:evenodd;stroke:none"
         id="path8-4" /></marker></defs><g
     inkscape:label="Layer 1"
     inkscape:groupmode="layer"
     id="layer1"
     transform="translate(-49.88378,-67.841941)"><path
       id="path3"
       style="fill:none;stroke:#000000;stroke-width:2.5;stroke-linejoin:round;stroke-dasharray:none;stroke-opacity:1"
       d="m 52.636064,127.73587 c -3.29485,1.90325 -6.591651,3.80537 -9.887252,5.70818 3.295733,1.90252 6.592983,3.80671 9.887768,5.70818 3.295751,-1.90273 6.591501,-3.80545 9.887252,-5.70818 -3.295883,-1.90278 -6.592082,-3.80515 -9.887768,-5.70818 z m 9.887912,5.70798 1.44e-4,11.05833 c -3.295847,1.90286 -6.591693,3.80571 -9.88754,5.70857 l -1.44e-4,-11.05833 c 3.295847,-1.90286 6.591693,-3.80571 9.88754,-5.70857 z m -19.77508,0 1.44e-4,11.05833 c 3.295847,1.90286 6.591693,3.80571 9.88754,5.70857 v -11.05852 c -3.295895,-1.90279 -6.591789,-3.80559 -9.887684,-5.70838 z"
       inkscape:original-d="m 52.636064,127.73587 c -3.29485,1.90325 -6.591651,3.80537 -9.887252,5.70818 3.295733,1.90252 6.592983,3.80671 9.887768,5.70818 3.295751,-1.90273 6.591501,-3.80545 9.887252,-5.70818 -3.295883,-1.90278 -6.592082,-3.80515 -9.887768,-5.70818 z m 9.887912,5.70798 c 4.8e-5,3.68611 9.6e-5,7.37222 1.44e-4,11.05833 -3.295847,1.90286 -6.591693,3.80571 -9.88754,5.70857 -4.8e-5,-3.68611 -9.6e-5,-7.37222 -1.44e-4,-11.05833 3.295847,-1.90286 6.591693,-3.80571 9.88754,-5.70857 z m -19.77508,0 c 4.8e-5,3.68611 9.6e-5,7.37222 1.44e-4,11.05833 3.295847,1.90286 6.591693,3.80571 9.88754,5.70857 0,-3.68617 0,-7.37235 0,-11.05852 -3.295895,-1.90279 -6.591789,-3.80559 -9.887684,-5.70838 z"
       inkscape:path-effect="#path-effect3"
       transform="translate(36.116128,-32.388946)" /><path
       style="fill:none;stroke:#000000;stroke-width:1.5;stroke-linejoin:round;stroke-dasharray:none;stroke-opacity:1;marker-start:url(#RoundedArrow)"
       d="m 98.699444,82.516266 c 0,0 -4.1112,-7.061563 -9.708577,-7.061563 -9.672173,0 -15.61293,14.722424 -15.61293,31.111467 0,16.38906 6.331253,31.11145 15.61293,31.11145 8.102137,0 11.552803,-11.06864 11.552803,-11.06864"
       id="path5"
       sodipodi:nodetypes="csssc" /><path
       style="fill:none;stroke:#000000;stroke-width:1.5;stroke-linejoin:round;stroke-dasharray:none;stroke-opacity:1;marker-start:url(#RoundedArrow-8)"
       d="m 64.588305,116.32732 c 0,0 -7.06156,-4.1112 -7.06156,-9.70858 0,-9.672171 14.72242,-15.612928 31.111468,-15.612928 16.389057,0 31.237807,6.332117 31.111457,15.612928 -0.12471,9.16037 -19.32643,14.17404 -19.32643,14.17404"
       id="path5-3"
       sodipodi:nodetypes="csssc" /><text
       xml:space="preserve"
       style="font-style:normal;font-variant:normal;font-weight:normal;font-stretch:normal;font-size:12.1425px;font-family:Roboto;-inkscape-font-specification:'Roboto, @wght=500,wdth=95';font-variant-ligatures:normal;font-variant-caps:normal;font-variant-numeric:normal;font-variant-east-asian:normal;font-variation-settings:'wdth' 95, 'wght' 500;text-align:start;writing-mode:lr-tb;direction:ltr;text-anchor:start;fill:#000000;fill-opacity:1;stroke:none;stroke-width:2.68868;stroke-linejoin:round;stroke-dasharray:none;stroke-opacity:1"
       x="81.970291"
       y="130.19897"
       id="text5"><tspan
         sodipodi:role="line"
         id="tspan5"
         style="font-style:normal;font-variant:normal;font-weight:normal;font-stretch:normal;font-size:12.1425px;font-family:Roboto;-inkscape-font-specification:'Roboto, @wght=500,wdth=95';font-variant-ligatures:normal;font-variant-caps:normal;font-variant-numeric:normal;font-variant-east-asian:normal;font-variation-settings:'wdth' 95, 'wght' 500;fill:#000000;fill-opacity:1;stroke:none;stroke-width:2.68868;stroke-dasharray:none"
         x="81.970291"
         y="130.19897">3D</tspan></text></g></svg>
